<svg id="eden-logo-white" xmlns="http://www.w3.org/2000/svg" xmlns:xlink="http://www.w3.org/1999/xlink" width="122.41" height="35.958" viewBox="0 0 122.41 35.958">
  <defs>
    <linearGradient id="linear-gradient" x1="0.96" y1="0.317" x2="0.029" y2="0.713" gradientUnits="objectBoundingBox">
      <stop offset="0" stop-color="#c7f222"/>
      <stop offset="0.75" stop-color="#00d37f"/>
    </linearGradient>
  </defs>
  <path id="Path_30" data-name="Path 30" d="M26.484,13.242,13.242,0,2.207,11.035,0,13.242V24.293L5.51,29.8,7.717,32.01,9.924,29.8h0l1.758-1.758v7.913H14.8V28.044l1.75,1.75h0L18.76,32l2.207-2.207h0l5.517-5.517V13.242ZM14.8,20.509V5.975l7.267,7.267ZM11.681,5.975V20.509L4.414,13.242ZM3.121,23V16.363l7.914,7.914L7.716,27.6Zm12.328,1.277,7.914-7.914v6.621l-4.6,4.6Z" fill="url(#linear-gradient)"/>
  <g id="Group_89_00000003808942520042662530000000287501077542678423_" transform="translate(31.837 9.679)">
    <g id="Group_89-2_00000159447695953410570490000004502006730085499315_" transform="translate(69.357 0)">
      <path id="Path_189_00000069395844101753316280000013562493048416174976_" d="M2279.1-24.97h-9.715V-2.648h3.163V-21.806h6.552a8.35,8.35,0,0,1,8.338,8.339V-2.647h3.163V-13.469a11.515,11.515,0,0,0-11.5-11.5" transform="translate(-2269.38 24.97)" fill="#fff"/>
    </g>
    <path id="Path_190_00000098924497618274729400000001891611974230440120_" d="M1239.67,119.611v13.1h18.082v-3.144h-14.938v-6.815h14.938V119.61Z" transform="translate(-1239.67 -110.392)" fill="#fff"/>
    <rect id="Rectangle_122_00000168074464546920471390000006579304067019322022_" width="18.053" height="3.143" transform="translate(0 0)" fill="#fff"/>
    <g id="Group_90_00000023988651408881022510000001850468456628822409_" transform="translate(23.951 0.029)">
      <path id="Path_191_00000081605517071198136250000001255330704237090227_" d="M1608.316-21.574h0a11.249,11.249,0,0,0-3.4-2.2,9.3,9.3,0,0,0-3.521-.763h-6.139v3.087h5.513a7.782,7.782,0,0,1,3.328.692,8.145,8.145,0,0,1,2.534,1.821,8.255,8.255,0,0,1,1.622,2.575,7.969,7.969,0,0,1-1.884,8.793,8.261,8.261,0,0,1-2.589,1.649,7.994,7.994,0,0,1-3.012.589h-.5v3.143h1.13a9.306,9.306,0,0,0,3.85-.855,11.2,11.2,0,0,0,3.352-2.339,11.785,11.785,0,0,0,2.379-3.522,11.331,11.331,0,0,0-.106-9.147,11.865,11.865,0,0,0-2.557-3.52" transform="translate(-1595.26 24.54)" fill="#fff"/>
    </g>
    <rect id="Rectangle_123_00000085934585496441830660000011103014158744181660_" width="18.053" height="3.143" transform="translate(45.537 0)" fill="#fff"/>
    <path id="Path_192_00000056399678794349881390000006872227617102197926_" d="M1953.92,119.611v13.1H1972v-3.144h-14.938v-6.815H1972V119.61Z" transform="translate(-1908.383 -110.392)" fill="#fff"/>
  </g>
</svg>
